<?xml version="1.0" standalone="no"?>
<svg xmlns="http://www.w3.org/2000/svg" xmlns:xlink="http://www.w3.org/1999/xlink" version="1.0" width="600" height="660" id="Shield">
    <defs id="Herald">
        <path d="M3,3 V260.637C3,369.135,46.339,452.459,99.763,514 C186.238,614.13,300,657,300,657 C300,657,413.762,614.13,500.237,514 C553.661,452.459,597,369.135,597,260.637V3Z" style="stroke-width:3" id="Shield1"/>
        <g id="Erminepart">
            <circle cx="40" cy="55" r="10" />
            <circle cx="60" cy="55" r="10" />
            <circle cx="50" cy="37" r="10" />
            <path transform="scale(2)" d="M25,30c0,0,0,0-0.1,0v0.1l-3.8,22.365l-4.9,15.705l0,0l-3.3,7.058v0.1v0.099c0.1,0,0.1,0,0.1,0l3.9-1.889 l2.1-2.386l2.2-3.379l3.5,12.922l-0.1,0.497l0,0l0.1,0.1c0,0,0,0,0.1,0h0.2h0.1c0-0.1,0-0.1,0.1-0.1v-0.099l-0.2-0.398l3.7-12.922 l2.1,3.379l2.1,2.386h0.1l3.7,1.889l0,0c0.1-0.099,0.1-0.099,0.2-0.099v-0.1l-3.3-7.058l0,0l-4.9-15.705l-3.5-22.365l-0.1-0.1 H256.2z"/>
        </g>
    </defs>
    <g>
        <use style="stroke:#000000;fill:#ffffff" id="Field" xlink:href="#Shield1"/>
        <use xlink:href="#Erminepart"/>
    </g>
</svg>
